<?xml version="1.0" encoding="UTF-8"?>
<!DOCTYPE svg PUBLIC "-//W3C//DTD SVG 1.1//EN" "http://www.w3.org/Graphics/SVG/1.1/DTD/svg11.dtd">
<svg xmlns="http://www.w3.org/2000/svg" version="1.1" width="500px" height="500px" style="shape-rendering:geometricPrecision; text-rendering:geometricPrecision; image-rendering:optimizeQuality; fill-rule:evenodd; clip-rule:evenodd" xmlns:xlink="http://www.w3.org/1999/xlink">
<g><path style="opacity:0.004" fill="#fefffe" d="M -0.5,-0.5 C 166.167,-0.5 332.833,-0.5 499.5,-0.5C 499.5,166.167 499.5,332.833 499.5,499.5C 499.167,499.5 498.833,499.5 498.5,499.5C 498.5,333.167 498.5,166.833 498.5,0.5C 332.5,0.5 166.5,0.5 0.5,0.5C 0.5,166.833 0.5,333.167 0.5,499.5C 0.166667,499.5 -0.166667,499.5 -0.5,499.5C -0.5,332.833 -0.5,166.167 -0.5,-0.5 Z M 48.5,92.5 C 49.1667,92.5 49.8333,92.5 50.5,92.5C 48.8894,94.6411 47.3894,96.9744 46,99.5C 45.3292,100.252 44.4959,100.586 43.5,100.5C 44.1098,99.609 44.4431,98.609 44.5,97.5C 45.803,95.8577 47.1363,94.1911 48.5,92.5 Z"/></g>
<g><path style="opacity:0.023" fill="#f8efe8" d="M 422.5,80.5 C 306.5,80.3333 190.5,80.5 74.5,81C 59.2883,85.7175 48.2883,95.2175 41.5,109.5C 41.1961,108.85 40.8627,108.183 40.5,107.5C 41.6302,106.378 42.2969,105.044 42.5,103.5C 44.4812,102.895 44.8146,101.895 43.5,100.5C 44.4959,100.586 45.3292,100.252 46,99.5C 47.3894,96.9744 48.8894,94.6411 50.5,92.5C 53.8991,90.6117 56.8991,88.1117 59.5,85C 62.5,83.5 65.5,82 68.5,80.5C 69.7112,79.7261 69.7112,78.8928 68.5,78C 69.5,77.3333 70.5,77.3333 71.5,78C 70.1118,78.8893 70.2785,79.3893 72,79.5C 72.3309,77.8262 73.8309,76.8262 76.5,76.5C 191.417,78.3252 306.417,79.1585 421.5,79C 422.056,79.3826 422.389,79.8826 422.5,80.5 Z"/></g>
<g><path style="opacity:0.004" fill="#fefffe" d="M 79.5,77.5 C 80.6009,76.4017 81.9343,76.235 83.5,77C 82.2068,77.49 80.8734,77.6567 79.5,77.5 Z"/></g>
<g><path style="opacity:0.004" fill="#fefffe" d="M 418.5,77.5 C 420.288,76.3775 422.288,76.2109 424.5,77C 422.527,77.4955 420.527,77.6621 418.5,77.5 Z"/></g>
<g><path style="opacity:0.998" fill="#c68244" d="M 422.5,80.5 C 422.833,80.5 423.167,80.5 423.5,80.5C 440.25,85.5825 451.917,96.2492 458.5,112.5C 459.488,188.478 459.821,264.478 459.5,340.5C 453.282,360.877 439.616,373.044 418.5,377C 362.167,377.167 305.833,377.333 249.5,377.5C 191.136,377.655 132.803,377.155 74.5,376C 56.554,370.222 44.8874,358.388 39.5,340.5C 39.3333,265.499 39.5,190.499 40,115.5C 40.813,113.564 41.313,111.564 41.5,109.5C 48.2883,95.2175 59.2883,85.7175 74.5,81C 190.5,80.5 306.5,80.3333 422.5,80.5 Z"/></g>
<g><path style="opacity:0.004" fill="#fefffe" d="M 437.5,81.5 C 438.833,82.1667 438.833,82.1667 437.5,81.5 Z"/></g>
<g><path style="opacity:0.004" fill="#fefffe" d="M 55.5,86.5 C 55.3505,85.448 55.5172,84.448 56,83.5C 56.7401,84.7494 56.5735,85.7494 55.5,86.5 Z"/></g>
<g><path style="opacity:0.004" fill="#fefffe" d="M 55.5,86.5 C 56.5735,85.7494 56.7401,84.7494 56,83.5C 55.5172,84.448 55.3505,85.448 55.5,86.5 Z"/></g>
<g><path style="opacity:0.004" fill="#fefffe" d="M 50.5,92.5 C 49.8333,92.5 49.1667,92.5 48.5,92.5C 49.1667,88.5 49.8333,88.5 50.5,92.5 Z"/></g>
<g><path style="opacity:0.025" fill="#fbf5f1" d="M 423.5,80.5 C 432.395,81.2805 440.062,84.7805 446.5,91C 450.41,95.2359 453.91,99.7359 457,104.5C 458.252,107.014 458.752,109.68 458.5,112.5C 451.917,96.2492 440.25,85.5825 423.5,80.5 Z"/></g>
<g><path style="opacity:0.004" fill="#fefffe" d="M 48.5,92.5 C 47.1363,94.1911 45.803,95.8577 44.5,97.5C 44.0768,94.876 45.4101,93.2093 48.5,92.5 Z"/></g>
<g><path style="opacity:0.004" fill="#fefffe" d="M 44.5,97.5 C 44.4431,98.609 44.1098,99.609 43.5,100.5C 42.6365,101.463 41.9698,101.463 41.5,100.5C 41.8793,98.7869 42.8793,97.7869 44.5,97.5 Z"/></g>
<g><path style="opacity:0.004" fill="#fefffe" d="M 42.5,103.5 C 41.7611,103.631 41.0944,103.464 40.5,103C 41.4368,102.308 42.1034,102.475 42.5,103.5 Z"/></g>
<g><path style="opacity:0.005" fill="#fefffe" d="M 38.5,105.5 C 39.0967,105.735 39.4301,106.235 39.5,107C 39.1463,109.264 38.1463,111.098 36.5,112.5C 36.1667,112.333 35.8333,112.167 35.5,112C 36.7929,109.948 37.7929,107.781 38.5,105.5 Z"/></g>
<g><path style="opacity:0.013" fill="#f8efe8" d="M 458.5,112.5 C 460.124,114.151 461.457,116.151 462.5,118.5C 462.409,204.822 462.409,290.989 462.5,377C 459.833,378 459.833,379 462.5,380C 461.328,380.419 460.328,381.085 459.5,382C 459.663,384.211 459.663,386.378 459.5,388.5C 458.675,389.386 457.675,389.719 456.5,389.5C 457.022,386.432 457.855,383.432 459,380.5C 459.5,367.171 459.667,353.837 459.5,340.5C 459.821,264.478 459.488,188.478 458.5,112.5 Z"/></g>
<g><path style="opacity:0.004" fill="#fefffe" d="M 34.5,113.5 C 35.3764,113.369 36.0431,113.702 36.5,114.5C 36.9377,117.512 36.4377,120.512 35,123.5C 34.6905,122.234 34.1905,121.067 33.5,120C 34.4231,117.959 34.7564,115.792 34.5,113.5 Z"/></g>
<g><path style="opacity:1" fill="#fefefe" d="M 79.5,113.5 C 128.918,113.009 178.251,113.509 227.5,115C 228.787,116.41 229.954,117.91 231,119.5C 231.667,164.5 231.667,209.5 231,254.5C 229.895,257.937 227.728,260.437 224.5,262C 176.5,262.667 128.5,262.667 80.5,262C 78,260.833 76.1667,259 75,256.5C 74.3333,210.5 74.3333,164.5 75,118.5C 76.7073,116.963 78.2073,115.296 79.5,113.5 Z"/></g>
<g><path style="opacity:0.01" fill="#f9f2ed" d="M 41.5,109.5 C 41.313,111.564 40.813,113.564 40,115.5C 39.5,190.499 39.3333,265.499 39.5,340.5C 39.3334,353.837 39.5001,367.171 40,380.5C 43.1057,393.414 49.939,403.747 60.5,411.5C 57.3326,410.832 54.8326,409.166 53,406.5C 52.6667,406.833 52.3333,407.167 52,407.5C 51.0312,404.698 49.1979,402.698 46.5,401.5C 44.2825,396.004 41.7825,390.671 39,385.5C 39.6981,383.236 39.1981,381.403 37.5,380C 38.4581,378.853 38.1247,377.853 36.5,377C 36.5595,295.637 36.5595,217.97 36.5,144C 37.1953,135.71 37.8619,127.377 38.5,119C 38.1667,118 37.8333,117 37.5,116C 38.7511,113.64 40.0844,111.474 41.5,109.5 Z"/></g>
<g><path style="opacity:0.004" fill="#fefffe" d="M 34.5,127.5 C 35.5983,128.601 35.765,129.934 35,131.5C 34.51,130.207 34.3433,128.873 34.5,127.5 Z"/></g>
<g><path style="opacity:1" fill="#131313" d="M 88.5,135.5 C 90.3635,134.207 92.3635,134.207 94.5,135.5C 96.8077,139.795 99.4744,143.795 102.5,147.5C 105.65,143.881 108.316,139.881 110.5,135.5C 112.421,134.359 114.421,134.192 116.5,135C 112.875,140.415 109.375,145.915 106,151.5C 105.501,155.486 105.334,159.486 105.5,163.5C 103.5,163.5 101.5,163.5 99.5,163.5C 99.6653,159.818 99.4986,156.152 99,152.5C 95.9761,146.434 92.4761,140.768 88.5,135.5 Z"/></g>
<g><path style="opacity:1" fill="#0f0f0f" d="M 126.5,146.5 C 126.217,145.711 125.717,145.044 125,144.5C 124.5,150.825 124.334,157.158 124.5,163.5C 122.833,163.5 121.167,163.5 119.5,163.5C 119.5,153.833 119.5,144.167 119.5,134.5C 121.467,134.261 123.301,134.594 125,135.5C 128.27,141.764 131.936,147.764 136,153.5C 139.3,147.37 142.8,141.37 146.5,135.5C 148.045,134.548 149.712,134.215 151.5,134.5C 151.5,144.167 151.5,153.833 151.5,163.5C 149.833,163.5 148.167,163.5 146.5,163.5C 146.666,157.491 146.499,151.491 146,145.5C 142.904,150.702 139.571,155.702 136,160.5C 132.113,156.415 128.946,151.749 126.5,146.5 Z"/></g>
<g><path style="opacity:1" fill="#090909" d="M 175.5,154.5 C 171.833,154.5 168.167,154.5 164.5,154.5C 164.5,157.5 164.5,160.5 164.5,163.5C 162.833,163.5 161.167,163.5 159.5,163.5C 159.5,153.833 159.5,144.167 159.5,134.5C 164.844,134.334 170.177,134.501 175.5,135C 182.264,137.104 184.764,141.604 183,148.5C 181.52,151.817 179.02,153.817 175.5,154.5 Z"/></g>
<g><path style="opacity:1" fill="#f4f4f4" d="M 164.5,139.5 C 168.182,139.335 171.848,139.501 175.5,140C 179.729,143.843 179.395,147.177 174.5,150C 171.183,150.498 167.85,150.665 164.5,150.5C 164.5,146.833 164.5,143.167 164.5,139.5 Z"/></g>
<g><path style="opacity:1" fill="#777777" d="M 126.5,146.5 C 125.833,152.167 125.167,157.833 124.5,163.5C 124.334,157.158 124.5,150.825 125,144.5C 125.717,145.044 126.217,145.711 126.5,146.5 Z"/></g>
<g><path style="opacity:1" fill="#9a9a9a" d="M 175.5,154.5 C 172.375,155.479 169.042,155.813 165.5,155.5C 165.806,158.385 165.473,161.052 164.5,163.5C 164.5,160.5 164.5,157.5 164.5,154.5C 168.167,154.5 171.833,154.5 175.5,154.5 Z"/></g>
<g><path style="opacity:0.004" fill="#fefffe" d="M 34.5,158.5 C 35.8333,159.167 35.8333,159.167 34.5,158.5 Z"/></g>
<g><path style="opacity:0.004" fill="#fefffe" d="M 34.5,161.5 C 35.8333,162.167 35.8333,162.167 34.5,161.5 Z"/></g>
<g><path style="opacity:0.004" fill="#fefffe" d="M 34.5,163.5 C 35.6291,165.628 35.7958,167.961 35,170.5C 34.5034,168.19 34.3367,165.857 34.5,163.5 Z"/></g>
<g><path style="opacity:1" fill="#222222" d="M 93.5,241.5 C 92.5386,239.735 92.2053,237.735 92.5,235.5C 97.3276,235.385 98.6609,237.552 96.5,242C 95.2506,242.74 94.2506,242.573 93.5,241.5 Z"/></g>
<g><path style="opacity:1" fill="#2d2d2d" d="M 100.5,235.5 C 101.725,236.152 102.392,237.319 102.5,239C 102.333,240.167 102.167,241.333 102,242.5C 101.879,240.273 101.046,238.44 99.5,237C 100.056,236.617 100.389,236.117 100.5,235.5 Z"/></g>
<g><path style="opacity:1" fill="#090909" d="M 114.5,235.5 C 115.629,237.628 115.796,239.961 115,242.5C 114.879,240.273 114.046,238.44 112.5,237C 113.416,236.722 114.082,236.222 114.5,235.5 Z"/></g>
<g><path style="opacity:1" fill="#393939" d="M 119.5,235.5 C 123.677,234.842 125.177,236.508 124,240.5C 122.688,242.658 121.022,242.991 119,241.5C 118.322,239.402 118.489,237.402 119.5,235.5 Z"/></g>
<g><path style="opacity:1" fill="#393939" d="M 152.5,235.5 C 156.677,234.842 158.177,236.508 157,240.5C 155.688,242.658 154.022,242.991 152,241.5C 151.322,239.402 151.489,237.402 152.5,235.5 Z"/></g>
<g><path style="opacity:1" fill="#5e5e5e" d="M 160.5,235.5 C 161.725,236.152 162.392,237.319 162.5,239C 162.167,240.167 161.833,241.333 161.5,242.5C 160.203,240.082 159.87,237.749 160.5,235.5 Z"/></g>
<g><path style="opacity:1" fill="#e7e7e7" d="M 93.5,241.5 C 93.2148,239.712 93.5481,238.045 94.5,236.5C 97.2896,238.797 96.9563,240.464 93.5,241.5 Z"/></g>
<g><path style="opacity:1" fill="#969696" d="M 109.5,236.5 C 110.613,237.946 110.78,239.613 110,241.5C 108.708,242.791 107.542,242.791 106.5,241.5C 106.259,238.966 107.259,237.3 109.5,236.5 Z"/></g>
<g><path style="opacity:1" fill="#e5e5e5" d="M 120.5,236.5 C 121.649,236.791 122.316,237.624 122.5,239C 121.706,242.122 120.706,242.122 119.5,239C 119.743,238.098 120.077,237.265 120.5,236.5 Z"/></g>
<g><path style="opacity:1" fill="#969696" d="M 142.5,236.5 C 143.613,237.946 143.78,239.613 143,241.5C 141.708,242.791 140.542,242.791 139.5,241.5C 139.259,238.966 140.259,237.3 142.5,236.5 Z"/></g>
<g><path style="opacity:1" fill="#e5e5e5" d="M 153.5,236.5 C 154.649,236.791 155.316,237.624 155.5,239C 154.706,242.122 153.706,242.122 152.5,239C 152.743,238.098 153.077,237.265 153.5,236.5 Z"/></g>
<g><path style="opacity:1" fill="#555555" d="M 109.5,236.5 C 107.259,237.3 106.259,238.966 106.5,241.5C 105.387,240.054 105.22,238.387 106,236.5C 107.292,235.209 108.458,235.209 109.5,236.5 Z"/></g>
<g><path style="opacity:1" fill="#1d1d1d" d="M 127.5,235.5 C 128.629,237.628 128.796,239.961 128,242.5C 127.879,240.273 127.046,238.44 125.5,237C 126.416,236.722 127.082,236.222 127.5,235.5 Z"/></g>
<g><path style="opacity:1" fill="#555555" d="M 142.5,236.5 C 140.259,237.3 139.259,238.966 139.5,241.5C 138.387,240.054 138.22,238.387 139,236.5C 140.292,235.209 141.458,235.209 142.5,236.5 Z"/></g>
<g><path style="opacity:1" fill="#1d1d1d" d="M 147.5,235.5 C 148.629,237.628 148.796,239.961 148,242.5C 147.879,240.273 147.046,238.44 145.5,237C 146.416,236.722 147.082,236.222 147.5,235.5 Z"/></g>
<g><path style="opacity:1" fill="#4e4e4e" d="M 132.5,235.5 C 137.328,235.385 138.661,237.552 136.5,242C 131.57,242.427 130.237,240.26 132.5,235.5 Z"/></g>
<g><path style="opacity:1" fill="#f9f9f9" d="M 133.5,236.5 C 134.649,236.791 135.316,237.624 135.5,239C 135.167,239.833 134.833,240.667 134.5,241.5C 133.548,239.955 133.215,238.288 133.5,236.5 Z"/></g>
<g><path style="opacity:0.004" fill="#fefffe" d="M 34.5,266.5 C 35.525,266.897 35.6917,267.563 35,268.5C 34.5357,267.906 34.369,267.239 34.5,266.5 Z"/></g>
<g><path style="opacity:0.004" fill="#fefffe" d="M 34.5,269.5 C 35.525,269.897 35.6917,270.563 35,271.5C 34.5357,270.906 34.369,270.239 34.5,269.5 Z"/></g>
<g><path style="opacity:0.004" fill="#fefffe" d="M 34.5,272.5 C 35.8333,273.167 35.8333,273.167 34.5,272.5 Z"/></g>
<g><path style="opacity:0.004" fill="#fefffe" d="M 34.5,275.5 C 35.8333,276.167 35.8333,276.167 34.5,275.5 Z"/></g>
<g><path style="opacity:0.004" fill="#fefffe" d="M 34.5,277.5 C 35.525,277.897 35.6917,278.563 35,279.5C 34.5357,278.906 34.369,278.239 34.5,277.5 Z"/></g>
<g><path style="opacity:0.004" fill="#fefffe" d="M 34.5,280.5 C 35.525,280.897 35.6917,281.563 35,282.5C 34.5357,281.906 34.369,281.239 34.5,280.5 Z"/></g>
<g><path style="opacity:0.004" fill="#fefffe" d="M 34.5,283.5 C 35.8333,284.167 35.8333,284.167 34.5,283.5 Z"/></g>
<g><path style="opacity:0.004" fill="#fefffe" d="M 34.5,286.5 C 35.8333,287.167 35.8333,287.167 34.5,286.5 Z"/></g>
<g><path style="opacity:0.004" fill="#fefffe" d="M 34.5,289.5 C 35.8333,290.167 35.8333,290.167 34.5,289.5 Z"/></g>
<g><path style="opacity:0.004" fill="#fefffe" d="M 34.5,291.5 C 35.525,291.897 35.6917,292.563 35,293.5C 34.5357,292.906 34.369,292.239 34.5,291.5 Z"/></g>
<g><path style="opacity:0.004" fill="#fefffe" d="M 34.5,294.5 C 35.525,294.897 35.6917,295.563 35,296.5C 34.5357,295.906 34.369,295.239 34.5,294.5 Z"/></g>
<g><path style="opacity:0.004" fill="#fefffe" d="M 34.5,297.5 C 35.8333,298.167 35.8333,298.167 34.5,297.5 Z"/></g>
<g><path style="opacity:0.004" fill="#fefffe" d="M 34.5,300.5 C 35.8333,301.167 35.8333,301.167 34.5,300.5 Z"/></g>
<g><path style="opacity:0.004" fill="#fefffe" d="M 34.5,302.5 C 35.525,302.897 35.6917,303.563 35,304.5C 34.5357,303.906 34.369,303.239 34.5,302.5 Z"/></g>
<g><path style="opacity:0.004" fill="#fefffe" d="M 34.5,305.5 C 35.525,305.897 35.6917,306.563 35,307.5C 34.5357,306.906 34.369,306.239 34.5,305.5 Z"/></g>
<g><path style="opacity:0.004" fill="#fefffe" d="M 34.5,308.5 C 35.8333,309.167 35.8333,309.167 34.5,308.5 Z"/></g>
<g><path style="opacity:0.004" fill="#fefffe" d="M 34.5,311.5 C 35.8333,312.167 35.8333,312.167 34.5,311.5 Z"/></g>
<g><path style="opacity:0.004" fill="#fefffe" d="M 34.5,314.5 C 35.8333,315.167 35.8333,315.167 34.5,314.5 Z"/></g>
<g><path style="opacity:0.004" fill="#fefffe" d="M 34.5,316.5 C 35.525,316.897 35.6917,317.563 35,318.5C 34.5357,317.906 34.369,317.239 34.5,316.5 Z"/></g>
<g><path style="opacity:0.004" fill="#fefffe" d="M 34.5,319.5 C 35.525,319.897 35.6917,320.563 35,321.5C 34.5357,320.906 34.369,320.239 34.5,319.5 Z"/></g>
<g><path style="opacity:0.004" fill="#fefffe" d="M 34.5,322.5 C 35.8333,323.167 35.8333,323.167 34.5,322.5 Z"/></g>
<g><path style="opacity:0.004" fill="#fefffe" d="M 34.5,325.5 C 35.8333,326.167 35.8333,326.167 34.5,325.5 Z"/></g>
<g><path style="opacity:0.004" fill="#fefffe" d="M 34.5,327.5 C 35.525,327.897 35.6917,328.563 35,329.5C 34.5357,328.906 34.369,328.239 34.5,327.5 Z"/></g>
<g><path style="opacity:0.004" fill="#fefffe" d="M 34.5,330.5 C 35.6561,338.323 35.8228,346.323 35,354.5C 34.5003,346.507 34.3336,338.507 34.5,330.5 Z"/></g>
<g><path style="opacity:0.994" fill="#ad6c31" d="M 39.5,340.5 C 44.8874,358.388 56.554,370.222 74.5,376C 132.803,377.155 191.136,377.655 249.5,377.5C 305.833,377.333 362.167,377.167 418.5,377C 439.616,373.044 453.282,360.877 459.5,340.5C 459.667,353.837 459.5,367.171 459,380.5C 457.855,383.432 457.022,386.432 456.5,389.5C 454.659,391.849 453.326,394.515 452.5,397.5C 448.167,402.5 443.5,407.167 438.5,411.5C 431.388,415.1 424.055,417.766 416.5,419.5C 304.5,419.667 192.5,419.5 80.5,419C 76.0927,417.982 71.7593,416.815 67.5,415.5C 65.6644,413.412 63.3311,412.079 60.5,411.5C 49.939,403.747 43.1057,393.414 40,380.5C 39.5001,367.171 39.3334,353.837 39.5,340.5 Z"/></g>
<g><path style="opacity:0.004" fill="#fefffe" d="M 34.5,355.5 C 35.6408,358.64 35.8075,361.973 35,365.5C 34.5017,362.183 34.335,358.85 34.5,355.5 Z"/></g>
<g><path style="opacity:0.035" fill="#f8f3ee" d="M 456.5,389.5 C 456.206,392.754 454.873,395.421 452.5,397.5C 453.326,394.515 454.659,391.849 456.5,389.5 Z"/></g>
<g><path style="opacity:0.008" fill="#f9f4f0" d="M 452.5,397.5 C 449.5,403.833 444.833,408.5 438.5,411.5C 443.5,407.167 448.167,402.5 452.5,397.5 Z"/></g>
<g><path style="opacity:0.034" fill="#f6eee7" d="M 60.5,411.5 C 63.3311,412.079 65.6644,413.412 67.5,415.5C 65.2543,414.545 62.921,413.878 60.5,413.5C 60.5,412.833 60.5,412.167 60.5,411.5 Z"/></g>
<g><path style="opacity:0.004" fill="#fefffe" d="M 57.5,412.5 C 58.8333,413.167 58.8333,413.167 57.5,412.5 Z"/></g>
<g><path style="opacity:0.004" fill="#fefffe" d="M 60.5,413.5 C 59.8333,414.167 59.8333,414.167 60.5,413.5 Z"/></g>
<g><path style="opacity:0.016" fill="#f8f1eb" d="M 438.5,411.5 C 435.718,414.55 432.385,416.884 428.5,418.5C 426.983,417.089 425.649,417.256 424.5,419C 421.854,419.497 419.187,419.664 416.5,419.5C 424.055,417.766 431.388,415.1 438.5,411.5 Z"/></g>
<g><path style="opacity:0.052" fill="#fefefe" d="M 67.5,415.5 C 71.7593,416.815 76.0927,417.982 80.5,419C 192.5,419.5 304.5,419.667 416.5,419.5C 416.631,420.239 416.464,420.906 416,421.5C 304.375,420.168 192.709,420.168 81,421.5C 76.047,420.318 71.547,418.318 67.5,415.5 Z"/></g>
</svg>
